<?xml version="1.0" encoding="UTF-8"?>
<!DOCTYPE svg PUBLIC "-//W3C//DTD SVG 1.1//EN" "http://www.w3.org/Graphics/SVG/1.1/DTD/svg11.dtd">
<svg xmlns="http://www.w3.org/2000/svg" version="1.1" width="161px" height="89px" style="shape-rendering:geometricPrecision; text-rendering:geometricPrecision; image-rendering:optimizeQuality; fill-rule:evenodd; clip-rule:evenodd" xmlns:xlink="http://www.w3.org/1999/xlink">
<g><path style="opacity:1" fill="#fcfdfe" d="M -0.5,-0.5 C 53.1667,-0.5 106.833,-0.5 160.5,-0.5C 160.5,29.1667 160.5,58.8333 160.5,88.5C 106.833,88.5 53.1667,88.5 -0.5,88.5C -0.5,58.8333 -0.5,29.1667 -0.5,-0.5 Z"/></g>
<g><path style="opacity:1" fill="#4878cd" d="M 82.5,8.5 C 76.1624,8.76714 69.829,9.10047 63.5,9.5C 67.239,8.07759 71.239,7.41092 75.5,7.5C 78.0254,7.50337 80.3587,7.8367 82.5,8.5 Z"/></g>
<g><path style="opacity:1" fill="#185ec9" d="M 82.5,8.5 C 96.3993,9.95105 108.399,15.4511 118.5,25C 121.5,28.6667 124.5,32.3333 127.5,36C 137.01,39.0109 143.343,45.1776 146.5,54.5C 147.342,62.2806 146.009,69.614 142.5,76.5C 141.883,76.6107 141.383,76.944 141,77.5C 140.372,73.5328 138.205,70.6994 134.5,69C 129.924,67.5236 125.257,67.1902 120.5,68C 112.5,72.3333 104.5,76.6667 96.5,81C 85.4627,85.305 74.1294,86.4716 62.5,84.5C 58.767,82.589 54.767,81.2556 50.5,80.5C 39.5404,76.5365 30.207,70.2032 22.5,61.5C 23.209,60.596 24.209,60.2627 25.5,60.5C 34.5833,65.5304 44.25,69.1971 54.5,71.5C 57.6335,72.7432 60.9668,73.2432 64.5,73C 62.5115,72.0617 60.5115,71.2283 58.5,70.5C 45.2677,61.2698 41.4344,48.9365 47,33.5C 48.6665,31.0043 50.4998,28.671 52.5,26.5C 55.0006,24.9627 54.5006,24.2961 51,24.5C 48.5161,24.4967 46.3495,25.1634 44.5,26.5C 32.7757,29.4437 21.9424,34.4437 12,41.5C 13.5778,37.8859 16.0778,34.7193 19.5,32C 32.1513,20.5079 46.8179,13.0079 63.5,9.5C 69.829,9.10047 76.1624,8.76714 82.5,8.5 Z"/></g>
<g><path style="opacity:1" fill="#a6bde2" d="M 52.5,26.5 C 50.0185,25.7417 47.3519,25.7417 44.5,26.5C 46.3495,25.1634 48.5161,24.4967 51,24.5C 54.5006,24.2961 55.0006,24.9627 52.5,26.5 Z"/></g>
<g><path style="opacity:1" fill="#f1f4f8" d="M 88.5,31.5 C 89.3686,33.717 89.702,36.0504 89.5,38.5C 93.5172,37.8386 94.8505,39.1719 93.5,42.5C 92.1667,42.5 90.8333,42.5 89.5,42.5C 89.5,46.1667 89.5,49.8333 89.5,53.5C 89.1517,58.3634 86.485,61.0301 81.5,61.5C 80.1508,61.1543 78.8175,60.821 77.5,60.5C 76.4955,59.3172 75.6622,57.9839 75,56.5C 74.501,52.1794 74.3343,47.8461 74.5,43.5C 72.8333,43.5 71.1667,43.5 69.5,43.5C 69.6653,47.1817 69.4986,50.8484 69,54.5C 67.6667,55.8333 66.3333,55.8333 65,54.5C 64.5014,50.8484 64.3347,47.1817 64.5,43.5C 61.0504,44.2436 59.3838,42.9103 59.5,39.5C 61.0418,38.6993 62.7085,38.366 64.5,38.5C 64.3379,36.4727 64.5045,34.4727 65,32.5C 66.3333,31.1667 67.6667,31.1667 69,32.5C 69.4955,34.4727 69.6621,36.4727 69.5,38.5C 71.1667,38.5 72.8333,38.5 74.5,38.5C 74.5,36.1667 74.5,33.8333 74.5,31.5C 76.1439,31.2865 77.6439,31.6198 79,32.5C 79.4955,34.4727 79.6621,36.4727 79.5,38.5C 81.1667,38.5 82.8333,38.5 84.5,38.5C 84.3379,36.4727 84.5045,34.4727 85,32.5C 86.0113,31.6634 87.1779,31.33 88.5,31.5 Z"/></g>
<g><path style="opacity:1" fill="#4778c8" d="M 88.5,31.5 C 87.1779,31.33 86.0113,31.6634 85,32.5C 84.5045,34.4727 84.3379,36.4727 84.5,38.5C 82.8333,38.5 81.1667,38.5 79.5,38.5C 79.6621,36.4727 79.4955,34.4727 79,32.5C 77.6439,31.6198 76.1439,31.2865 74.5,31.5C 74.5,33.8333 74.5,36.1667 74.5,38.5C 72.8333,38.5 71.1667,38.5 69.5,38.5C 69.6621,36.4727 69.4955,34.4727 69,32.5C 67.6667,31.1667 66.3333,31.1667 65,32.5C 64.5045,34.4727 64.3379,36.4727 64.5,38.5C 62.7085,38.366 61.0418,38.6993 59.5,39.5C 59.5858,38.5041 59.2524,37.6708 58.5,37C 60.2988,35.1394 61.9655,33.1394 63.5,31C 66.8492,30.6124 70.1825,30.7791 73.5,31.5C 73.3505,30.448 73.5172,29.448 74,28.5C 76.5634,29.2587 79.0634,30.2587 81.5,31.5C 83.9983,30.3697 86.3316,30.3697 88.5,31.5 Z"/></g>
<g><path style="opacity:1" fill="#2565c7" d="M 88.5,31.5 C 90.0481,31.8212 90.7148,32.8212 90.5,34.5C 91.9305,34.5792 93.2638,34.2458 94.5,33.5C 95.65,35.7628 96.65,38.0962 97.5,40.5C 98.086,40.2907 98.586,39.9574 99,39.5C 99.1805,41.4884 99.0138,43.4884 98.5,45.5C 97.1667,45.5 95.8333,45.5 94.5,45.5C 94.9577,48.3938 94.291,50.8938 92.5,53C 96.2721,54.3893 96.2721,55.3893 92.5,56C 91.7449,58.1331 90.4116,59.7998 88.5,61C 89.4506,61.7175 89.6172,62.5509 89,63.5C 86.6194,62.565 84.1194,62.2317 81.5,62.5C 81.6495,63.552 81.4828,64.552 81,65.5C 79.8904,63.9632 78.3904,63.2965 76.5,63.5C 76.1667,67.5 75.8333,67.5 75.5,63.5C 71.6707,64.069 68.3373,63.4023 65.5,61.5C 67.4832,61.8432 68.8166,61.1765 69.5,59.5C 70.1174,59.3893 70.6174,59.056 71,58.5C 73.0871,59.3972 75.2537,60.0639 77.5,60.5C 78.8175,60.821 80.1508,61.1543 81.5,61.5C 86.485,61.0301 89.1517,58.3634 89.5,53.5C 90.4794,50.3752 90.8128,47.0419 90.5,43.5C 91.791,43.7373 92.791,43.404 93.5,42.5C 94.8505,39.1719 93.5172,37.8386 89.5,38.5C 89.702,36.0504 89.3686,33.717 88.5,31.5 Z"/></g>
<g><path style="opacity:1" fill="#e9eef7" d="M 103.5,34.5 C 108.715,36.6096 112.382,40.2762 114.5,45.5C 111.819,54.0238 106.652,60.6904 99,65.5C 101.772,61.2895 104.106,56.6228 106,51.5C 107.107,45.4651 106.274,39.7985 103.5,34.5 Z"/></g>
<g><path style="opacity:1" fill="#6b8fc8" d="M 93.5,42.5 C 92.791,43.404 91.791,43.7373 90.5,43.5C 90.8128,47.0419 90.4794,50.3752 89.5,53.5C 89.5,49.8333 89.5,46.1667 89.5,42.5C 90.8333,42.5 92.1667,42.5 93.5,42.5 Z"/></g>
<g><path style="opacity:1" fill="#366ec7" d="M 79.5,43.5 C 81.1667,43.5 82.8333,43.5 84.5,43.5C 84.6655,47.5138 84.4988,51.5138 84,55.5C 82.6667,56.8333 81.3333,56.8333 80,55.5C 79.5012,51.5138 79.3345,47.5138 79.5,43.5 Z"/></g>
<g><path style="opacity:1" fill="#4778c8" d="M 59.5,39.5 C 59.3838,42.9103 61.0504,44.2436 64.5,43.5C 64.3347,47.1817 64.5014,50.8484 65,54.5C 66.3333,55.8333 67.6667,55.8333 69,54.5C 69.4986,50.8484 69.6653,47.1817 69.5,43.5C 71.1667,43.5 72.8333,43.5 74.5,43.5C 74.3343,47.8461 74.501,52.1794 75,56.5C 75.6622,57.9839 76.4955,59.3172 77.5,60.5C 75.2537,60.0639 73.0871,59.3972 71,58.5C 70.6174,59.056 70.1174,59.3893 69.5,59.5C 69.001,56.6108 67.501,55.9442 65,57.5C 64.5172,58.448 64.3505,59.448 64.5,60.5C 62.4266,54.5793 60.0932,48.746 57.5,43C 58.0848,41.6976 58.7515,40.531 59.5,39.5 Z"/></g>
<g><path style="opacity:1" fill="#e9eff4" d="M 69.5,59.5 C 68.8166,61.1765 67.4832,61.8432 65.5,61.5C 64.8333,61.5 64.5,61.1667 64.5,60.5C 64.3505,59.448 64.5172,58.448 65,57.5C 67.501,55.9442 69.001,56.6108 69.5,59.5 Z"/></g>
<g><path style="opacity:1" fill="#4d79ce" d="M 25.5,60.5 C 24.209,60.2627 23.209,60.596 22.5,61.5C 20.5372,60.0401 18.7038,58.3734 17,56.5C 16.3123,55.6683 16.479,55.0016 17.5,54.5C 20.2347,56.5207 22.9014,58.5207 25.5,60.5 Z"/></g>
<g><path style="opacity:1" fill="#bbceec" d="M 146.5,54.5 C 148.158,61.5815 147.491,68.5815 144.5,75.5C 144.043,76.2975 143.376,76.6309 142.5,76.5C 146.009,69.614 147.342,62.2806 146.5,54.5 Z"/></g>
<g><path style="opacity:1" fill="#b1c4e4" d="M 58.5,70.5 C 60.5115,71.2283 62.5115,72.0617 64.5,73C 60.9668,73.2432 57.6335,72.7432 54.5,71.5C 56.099,71.7678 57.4324,71.4345 58.5,70.5 Z"/></g>
<g><path style="opacity:1" fill="#618ad5" d="M 50.5,80.5 C 54.767,81.2556 58.767,82.589 62.5,84.5C 58.0845,84.1394 54.0845,82.8061 50.5,80.5 Z"/></g>
</svg>
